<svg xmlns="http://www.w3.org/2000/svg" xmlns:xlink="http://www.w3.org/1999/xlink" width="261" viewBox="0 0 341 66" height="66" version="1.0">
   <symbol id="logo-symbol-wordmark">
       <g transform="scale(.8,.8)"> <!-- Adjust scale factor as needed -->
        <path d="M2.012 2.923h15.235q6.902 0 11.015 2.953c2.738 1.961 4.11 5.14 4.11 9.547q0 7.395-6.126 10.547c6.977 1.23 10.47 5.355 10.47 12.375q-.002 6.203-4.282 9.953-4.282 3.75-11.781 3.75H2.013ZM13.2 22.157h.89q3.75 0 5.594-1.312 1.858-1.311 1.86-4.281 0-4.999-7.454-5h-.89Zm0 21.25h3.515q8.217.002 8.219-5.468 0-3.28-2.062-4.703-2.05-1.437-6.157-1.438H13.2ZM76.258 2.923v31.672c0 6.043-1.633 10.61-4.89 13.703q-4.876 4.64-14.282 4.64-9.41 0-14.297-4.64-4.875-4.64-4.875-13.703V2.923h11.188v28.406q0 5.954 1.875 8.282 1.875 2.313 6.094 2.312 4.232 0 6.109-2.312 1.875-2.327 1.875-8.282V2.923Zm14.579 0v49.125H79.649V2.923Zm15.182 0V42.22h16.906v9.828H94.831V2.923Zm19.295 0h14.219q10.249.002 17.516 7 7.265 7.002 7.265 17.531-.002 10.596-7.234 17.594-7.235 7.001-17.547 7h-14.219Zm11.188 39.125h1.734q6.124 0 10.016-4.14 3.903-4.138 3.968-10.391-.002-6.248-3.906-10.422-3.89-4.172-10.078-4.172h-1.734Zm29.596-39.125h15.235q6.902 0 11.015 2.953c2.738 1.961 4.11 5.14 4.11 9.547q0 7.395-6.126 10.547c6.977 1.23 10.47 5.355 10.47 12.375q-.002 6.203-4.282 9.953-4.282 3.75-11.781 3.75h-18.64Zm11.188 19.234h.89q3.75 0 5.594-1.312 1.858-1.311 1.86-4.281 0-4.999-7.454-5h-.89Zm0 21.25h3.515q8.217.002 8.219-5.468 0-3.28-2.062-4.703-2.05-1.437-6.157-1.438h-3.515Zm0 0"/>
        <path d="m227.533 2.923 19.843 49.125h-12.029l-3.642-9.828h-18.688l-3.64 9.828h-12.033l19.828-49.125Zm.359 29.469-5.469-14.282h-.125l-5.484 14.282Zm44.366 9.531q2.56.001 4.968-.766 2.404-.78 3.547-1.5l1.125-.765 4.766 9.531q-.234.175-.656.469-.424.3-1.938 1.11a23 23 0 0 1-3.25 1.39q-1.721.596-4.515 1.062c-1.868.32-3.793.485-5.782.485q-6.843.001-12.984-3.361c-4.086-2.238-7.375-5.32-9.875-9.25q-3.75-5.905-3.75-12.75 0-5.184 2.203-9.953 2.203-4.763 5.86-8.156c2.437-2.258 5.28-4.063 8.53-5.406 3.259-1.352 6.598-2.032 10.016-2.032 3.176 0 6.102.383 8.782 1.141q4.03 1.125 5.687 2.25l1.672 1.125-4.766 9.531q-.422-.356-1.25-.86-.832-.496-3.328-1.327a15.8 15.8 0 0 0-5.061-.843q-4.05 0-7.266 1.313c-2.148.867-3.844 2.015-5.094 3.453q-1.875 2.143-2.859 4.609a13.5 13.5 0 0 0-.984 5.031q-.001 5.595 4.187 10.032 4.2 4.439 12.016 4.437m60.254 10.125h-15.422l-18.11-20.844v20.844h-11.186V2.923h11.188v20.063l16.859-20.063h13.578l-19.782 23.281Zm0 0"/>
      </g>
  </symbol>
  <use xlink:href="#logo-symbol-wordmark"/>
  </svg>
